<svg width="21" height="20" viewBox="0 0 21 20" fill="none" xmlns="http://www.w3.org/2000/svg">
<path d="M20.5 10.0001C20.5 4.47769 16.0224 0.00012207 10.5 0.00012207C4.97757 0.00012207 0.5 4.47769 0.5 10.0001C0.5 14.991 4.15631 19.1282 8.93763 19.8792V12.8914H6.3979V10.0001H8.93763V7.79649C8.93763 5.29052 10.4311 3.90534 12.7149 3.90534C13.809 3.90534 14.9537 4.10081 14.9537 4.10081V6.56179H13.6922C12.4505 6.56179 12.0624 7.33242 12.0624 8.12416V10.0001H14.8355L14.3926 12.8914H12.0624V19.8792C16.8437 19.1296 20.5 14.9924 20.5 10.0001Z" fill="#1977F3"/>
<path d="M14.3926 12.8912L14.8356 9.99987H12.0624V8.12391C12.0624 7.33358 12.4491 6.56154 13.6923 6.56154H14.9537V4.10056C14.9537 4.10056 13.809 3.90509 12.7149 3.90509C10.4311 3.90509 8.93768 5.28886 8.93768 7.79624V9.99987H6.39795V12.8912H8.93768V19.8789C9.44675 19.9591 9.96847 19.9999 10.5 19.9999C11.0316 19.9999 11.5533 19.9577 12.0624 19.8789V12.8912H14.3926Z" fill="#FEFEFE"/>
</svg>
