<svg width="261" height="37" viewBox="0 0 261 37" fill="none" xmlns="http://www.w3.org/2000/svg">
<path d="M11.2799 36.633C9.50659 36.633 7.73327 36.5708 5.95995 36.4464C4.21775 36.353 2.39776 36.1041 0.5 35.6997V4.33996C1.99332 4.05996 3.62664 3.85774 5.39996 3.7333C7.17328 3.57775 8.82215 3.49997 10.3466 3.49997C12.3999 3.49997 14.2821 3.65552 15.9932 3.96663C17.7354 4.24663 19.2287 4.7444 20.4732 5.45995C21.7176 6.1755 22.682 7.12438 23.3665 8.30659C24.082 9.4577 24.4398 10.8888 24.4398 12.5999C24.4398 15.1821 23.1954 17.2199 20.7065 18.7132C22.7598 19.4909 24.1598 20.5487 24.9065 21.8865C25.6531 23.2242 26.0264 24.7331 26.0264 26.4131C26.0264 29.8042 24.782 32.3553 22.2931 34.0664C19.8354 35.7775 16.1643 36.633 11.2799 36.633ZM7.59327 22.1198V30.4731C8.12216 30.5353 8.69771 30.582 9.31992 30.6131C9.94214 30.6442 10.6266 30.6597 11.3732 30.6597C13.551 30.6597 15.3088 30.3486 16.6465 29.7264C17.9843 29.1042 18.6532 27.9531 18.6532 26.2731C18.6532 24.7798 18.0932 23.722 16.9732 23.0998C15.8532 22.4465 14.251 22.1198 12.1666 22.1198H7.59327ZM7.59327 16.5665H11.1399C13.3799 16.5665 14.9821 16.2865 15.9465 15.7265C16.911 15.1354 17.3932 14.2021 17.3932 12.9266C17.3932 11.6199 16.8954 10.7021 15.8999 10.1732C14.9043 9.64436 13.4421 9.37992 11.5132 9.37992C10.891 9.37992 10.2221 9.39547 9.50659 9.42659C8.79104 9.42659 8.15327 9.4577 7.59327 9.51992V16.5665Z" fill="black"/>
<path d="M52.3404 35.373C51.1582 35.7152 49.6337 36.0264 47.7671 36.3064C45.9004 36.6175 43.9405 36.773 41.8871 36.773C39.8027 36.773 38.0605 36.493 36.6605 35.933C35.2916 35.373 34.2028 34.5953 33.3939 33.5997C32.585 32.5731 32.0095 31.3597 31.6672 29.9597C31.325 28.5598 31.1539 27.0198 31.1539 25.3398V11.6666H38.1072V24.4998C38.1072 26.7398 38.4027 28.3575 38.9938 29.3531C39.5849 30.3486 40.6894 30.8464 42.3071 30.8464C42.8049 30.8464 43.3338 30.8308 43.8938 30.7997C44.4538 30.7375 44.9516 30.6753 45.3871 30.6131V11.6666H52.3404V35.373Z" fill="black"/>
<path d="M58.8675 12.5066C60.0497 12.1643 61.5741 11.8532 63.4408 11.5732C65.3074 11.2621 67.2674 11.1066 69.3207 11.1066C71.4051 11.1066 73.1318 11.3866 74.5007 11.9466C75.9007 12.4754 77.0051 13.2377 77.814 14.2332C78.6228 15.2288 79.1984 16.411 79.5406 17.7798C79.8828 19.1487 80.054 20.6732 80.054 22.3531V36.213H73.1007V23.1931C73.1007 20.9532 72.8051 19.3665 72.214 18.4332C71.6229 17.4998 70.5185 17.0332 68.9007 17.0332C68.4029 17.0332 67.8741 17.0643 67.3141 17.1265C66.7541 17.1576 66.2563 17.2043 65.8207 17.2665V36.213H58.8675V12.5066Z" fill="black"/>
<path d="M93.3943 31.2197C94.6698 31.2197 95.5721 31.0953 96.1009 30.8464C96.6298 30.5975 96.8943 30.1153 96.8943 29.3997C96.8943 28.8398 96.5521 28.3575 95.8676 27.9531C95.1832 27.5175 94.141 27.0353 92.741 26.5064C91.6521 26.102 90.6565 25.682 89.7543 25.2464C88.8832 24.8109 88.1366 24.2976 87.5144 23.7065C86.8921 23.0842 86.4099 22.3531 86.0677 21.5131C85.7255 20.6732 85.5544 19.6621 85.5544 18.4798C85.5544 16.1776 86.4099 14.3577 88.121 13.0199C89.8321 11.6821 92.181 11.0132 95.1676 11.0132C96.6609 11.0132 98.092 11.1532 99.4609 11.4332C100.83 11.6821 101.919 11.9621 102.728 12.2732L101.514 17.6865C100.705 17.4065 99.8187 17.1576 98.8543 16.9399C97.9209 16.7221 96.8632 16.6132 95.681 16.6132C93.5032 16.6132 92.4143 17.2199 92.4143 18.4332C92.4143 18.7132 92.461 18.9621 92.5543 19.1798C92.6476 19.3976 92.8343 19.6154 93.1143 19.8332C93.3943 20.0198 93.7676 20.2376 94.2343 20.4865C94.7321 20.7043 95.3543 20.9532 96.1009 21.2332C97.6254 21.7931 98.8854 22.3531 99.8809 22.9131C100.876 23.442 101.654 24.0331 102.214 24.6865C102.805 25.3087 103.21 26.0087 103.428 26.7864C103.676 27.5642 103.801 28.4664 103.801 29.4931C103.801 31.9197 102.883 33.7553 101.048 34.9997C99.2431 36.2441 96.6765 36.8663 93.3476 36.8663C91.1699 36.8663 89.3499 36.6797 87.8877 36.3064C86.4566 35.933 85.461 35.6219 84.901 35.373L86.0677 29.7264C87.2499 30.1931 88.4632 30.5664 89.7077 30.8464C90.9521 31.0953 92.181 31.2197 93.3943 31.2197Z" fill="black"/>
<path d="M118.377 31.3597C119.062 31.3597 119.715 31.3442 120.337 31.3131C120.959 31.282 121.457 31.2353 121.83 31.1731V25.8998C121.55 25.8376 121.13 25.7753 120.57 25.7131C120.01 25.6509 119.497 25.6198 119.03 25.6198C118.377 25.6198 117.755 25.6664 117.164 25.7598C116.604 25.822 116.106 25.962 115.671 26.1798C115.235 26.3975 114.893 26.6931 114.644 27.0664C114.395 27.4398 114.271 27.9064 114.271 28.4664C114.271 29.5553 114.628 30.3175 115.344 30.7531C116.091 31.1575 117.102 31.3597 118.377 31.3597ZM117.817 11.0132C119.87 11.0132 121.582 11.2466 122.95 11.7132C124.319 12.1799 125.408 12.8488 126.217 13.7199C127.057 14.591 127.648 15.6488 127.99 16.8932C128.333 18.1376 128.504 19.5221 128.504 21.0465V35.513C127.508 35.7308 126.124 35.9797 124.35 36.2597C122.577 36.5708 120.43 36.7263 117.91 36.7263C116.324 36.7263 114.877 36.5863 113.571 36.3064C112.295 36.0264 111.191 35.5752 110.257 34.953C109.324 34.2997 108.608 33.4597 108.111 32.4331C107.613 31.4064 107.364 30.1464 107.364 28.6531C107.364 27.222 107.644 26.0087 108.204 25.0131C108.795 24.0176 109.573 23.2242 110.537 22.6331C111.502 22.042 112.606 21.622 113.851 21.3731C115.095 21.0932 116.386 20.9532 117.724 20.9532C118.626 20.9532 119.419 20.9998 120.104 21.0932C120.819 21.1554 121.395 21.2487 121.83 21.3731V20.7198C121.83 19.5376 121.473 18.5887 120.757 17.8732C120.042 17.1576 118.797 16.7999 117.024 16.7999C115.842 16.7999 114.675 16.8932 113.524 17.0799C112.373 17.2354 111.377 17.4687 110.537 17.7798L109.651 12.1799C110.055 12.0555 110.553 11.931 111.144 11.8066C111.766 11.651 112.435 11.5266 113.151 11.4332C113.866 11.3088 114.613 11.2155 115.391 11.1532C116.199 11.0599 117.008 11.0132 117.817 11.0132Z" fill="black"/>
<path d="M134.791 12.5066C135.974 12.1643 137.498 11.8532 139.365 11.5732C141.231 11.2621 143.191 11.1066 145.245 11.1066C147.329 11.1066 149.056 11.3866 150.424 11.9466C151.824 12.4754 152.929 13.2377 153.738 14.2332C154.547 15.2288 155.122 16.411 155.464 17.7798C155.807 19.1487 155.978 20.6732 155.978 22.3531V36.213H149.025V23.1931C149.025 20.9532 148.729 19.3665 148.138 18.4332C147.547 17.4998 146.442 17.0332 144.825 17.0332C144.327 17.0332 143.798 17.0643 143.238 17.1265C142.678 17.1576 142.18 17.2043 141.745 17.2665V36.213H134.791V12.5066Z" fill="black"/>
<path d="M173.472 0C174.778 0 175.976 0.139999 177.065 0.419997C178.154 0.668882 178.994 0.917768 179.585 1.16666L178.232 6.71994C177.609 6.43994 176.925 6.23772 176.178 6.11328C175.463 5.95773 174.794 5.87995 174.172 5.87995C173.332 5.87995 172.616 6.00439 172.025 6.25328C171.465 6.47105 171.014 6.78216 170.672 7.1866C170.361 7.59105 170.127 8.07326 169.972 8.63326C169.847 9.19325 169.785 9.79992 169.785 10.4532V11.6666H178.372V17.4532H169.785V36.213H162.832V10.3599C162.832 7.1866 163.718 4.66663 165.492 2.79998C167.296 0.933325 169.956 0 173.472 0Z" fill="#0EAE7C"/>
<path d="M205.114 23.8931C205.114 25.822 204.834 27.5953 204.274 29.2131C203.714 30.7997 202.905 32.1686 201.848 33.3197C200.79 34.4397 199.514 35.3108 198.021 35.933C196.559 36.5552 194.91 36.8664 193.074 36.8664C191.27 36.8664 189.621 36.5552 188.128 35.933C186.666 35.3108 185.406 34.4397 184.348 33.3197C183.29 32.1686 182.466 30.7997 181.875 29.2131C181.283 27.5953 180.988 25.822 180.988 23.8931C180.988 21.9643 181.283 20.2065 181.875 18.6198C182.497 17.0332 183.337 15.6799 184.395 14.5599C185.483 13.4399 186.759 12.5688 188.221 11.9466C189.714 11.3243 191.332 11.0132 193.074 11.0132C194.848 11.0132 196.466 11.3243 197.928 11.9466C199.421 12.5688 200.697 13.4399 201.754 14.5599C202.812 15.6799 203.637 17.0332 204.228 18.6198C204.819 20.2065 205.114 21.9643 205.114 23.8931ZM198.021 23.8931C198.021 21.7465 197.586 20.0665 196.714 18.8532C195.874 17.6087 194.661 16.9865 193.074 16.9865C191.488 16.9865 190.259 17.6087 189.388 18.8532C188.517 20.0665 188.081 21.7465 188.081 23.8931C188.081 26.0398 188.517 27.7509 189.388 29.0264C190.259 30.2709 191.488 30.8931 193.074 30.8931C194.661 30.8931 195.874 30.2709 196.714 29.0264C197.586 27.7509 198.021 26.0398 198.021 23.8931Z" fill="#0EAE7C"/>
<path d="M233.46 23.8931C233.46 25.822 233.18 27.5953 232.62 29.2131C232.06 30.7997 231.252 32.1686 230.194 33.3197C229.136 34.4397 227.861 35.3108 226.367 35.933C224.905 36.5552 223.256 36.8664 221.421 36.8664C219.616 36.8664 217.967 36.5552 216.474 35.933C215.012 35.3108 213.752 34.4397 212.694 33.3197C211.636 32.1686 210.812 30.7997 210.221 29.2131C209.63 27.5953 209.334 25.822 209.334 23.8931C209.334 21.9643 209.63 20.2065 210.221 18.6198C210.843 17.0332 211.683 15.6799 212.741 14.5599C213.83 13.4399 215.105 12.5688 216.567 11.9466C218.061 11.3243 219.678 11.0132 221.421 11.0132C223.194 11.0132 224.812 11.3243 226.274 11.9466C227.767 12.5688 229.043 13.4399 230.1 14.5599C231.158 15.6799 231.983 17.0332 232.574 18.6198C233.165 20.2065 233.46 21.9643 233.46 23.8931ZM226.367 23.8931C226.367 21.7465 225.932 20.0665 225.061 18.8532C224.221 17.6087 223.007 16.9865 221.421 16.9865C219.834 16.9865 218.605 17.6087 217.734 18.8532C216.863 20.0665 216.427 21.7465 216.427 23.8931C216.427 26.0398 216.863 27.7509 217.734 29.0264C218.605 30.2709 219.834 30.8931 221.421 30.8931C223.007 30.8931 224.221 30.2709 225.061 29.0264C225.932 27.7509 226.367 26.0398 226.367 23.8931Z" fill="#0EAE7C"/>
<path d="M244.773 23.7531C244.773 25.8998 245.256 27.6264 246.22 28.9331C247.184 30.2397 248.616 30.8931 250.513 30.8931C251.136 30.8931 251.711 30.8775 252.24 30.8464C252.769 30.7842 253.204 30.722 253.547 30.6597V18.0132C253.111 17.7332 252.536 17.4998 251.82 17.3132C251.136 17.1265 250.436 17.0332 249.72 17.0332C246.422 17.0332 244.773 19.2732 244.773 23.7531ZM260.5 35.4197C259.878 35.6064 259.162 35.793 258.353 35.9797C257.544 36.1352 256.689 36.2752 255.787 36.3997C254.916 36.5241 254.013 36.6175 253.08 36.6797C252.178 36.773 251.307 36.8197 250.467 36.8197C248.444 36.8197 246.64 36.5241 245.053 35.933C243.467 35.3419 242.129 34.5019 241.04 33.413C239.951 32.2931 239.111 30.9553 238.52 29.3997C237.96 27.8131 237.68 26.0398 237.68 24.0798C237.68 22.0887 237.929 20.2998 238.427 18.7132C238.925 17.0954 239.64 15.7265 240.573 14.6065C241.507 13.4866 242.642 12.631 243.98 12.0399C245.349 11.4488 246.904 11.1532 248.647 11.1532C249.611 11.1532 250.467 11.2466 251.213 11.4332C251.991 11.6199 252.769 11.8843 253.547 12.2266V1.11999L260.5 0V35.4197Z" fill="#0EAE7C"/>
</svg>
